<svg id="Layer_1" data-name="Layer 1" xmlns="http://www.w3.org/2000/svg" viewBox="0 0 28.76 24.93">
  <title>SCB_Camera</title>
  <path fill="#adadad" d="M952.7,537a3.69,3.69,0,0,0-2.71-1.12h-3.36l-.76-2a2.78,2.78,0,0,0-1-1.27,2.67,2.67,0,0,0-1.55-.53h-7.67a2.67,2.67,0,0,0-1.55.53,2.78,2.78,0,0,0-1,1.27l-.76,2h-3.36a3.84,3.84,0,0,0-3.84,3.84v13.42a3.84,3.84,0,0,0,3.84,3.84H950a3.84,3.84,0,0,0,3.84-3.84V539.67A3.69,3.69,0,0,0,952.7,537Zm-13.26,16a6.5,6.5,0,1,1,6.5-6.5A6.5,6.5,0,0,1,939.44,553Z" transform="translate(-925.06 -532)"/>
  <circle fill="#adadad" cx="14.44" cy="14.5" r="4.5"/>
  </svg>