<svg xmlns="http://www.w3.org/2000/svg" viewBox="0 0 200 200"><path d="M182.76,37.22l0,6.07c-.27,6.63-3,12.42-6.09,18.13-4.71,8.79-9.36,17.61-14,26.42l-33.35,63c-3.33,6.28-6.62,12.59-10,18.83-7.93,14.46-20.08,23.43-36.13,26.85-16.39,3.5-31.39-.1-44.64-10.26-8.85-6.78-14.21-16-16.92-26.77-3.69-14.61-1.37-28.4,5.86-41.5C33.21,107.43,39,96.85,44.76,86.29q11-20,22-40.05Q71.84,37,76.87,27.81a7.26,7.26,0,0,1,6.85-4,6.76,6.76,0,0,1,5.79,4.94A6.16,6.16,0,0,1,89,33.66L59.12,87.44c-7,12.59-14.19,25.06-20.85,37.81S31,151,37.32,164c5.12,10.49,13.88,16.66,25.17,19.15,13,2.86,24.76-.11,35.14-8.37a39.65,39.65,0,0,0,10.21-12.58q14.35-26.91,28.66-53.85l24.49-46c1.84-3.46,3.72-6.9,5.53-10.38,5.23-10,3.51-21.58-4.78-29.24-11-10.14-30.19-9.46-38.7,4.34-3,4.81-5.4,9.94-8.06,14.93Q100.34,69.47,85.71,96.9q-8.61,16.17-17.2,32.35c-1.4,2.62-2.79,5.24-4.23,7.84A9.55,9.55,0,0,0,67.36,149c2.6,1.71,5.28,3.14,8.63,2.22a8.9,8.9,0,0,0,5.68-4.63q7.26-13.63,14.5-27.31,11.11-20.93,22.24-41.85a6.52,6.52,0,0,1,8.86-2.9,6.44,6.44,0,0,1,3.13,8.93c-2.13,4.25-4.43,8.43-6.66,12.63l-12.86,24.19Q102,136.95,93.22,153.56a22,22,0,0,1-21.36,11.09c-8.48-.93-18.77-7.8-21.17-18.11a21.32,21.32,0,0,1,1.7-15.32Q60,116.88,67.64,102.59q16.81-31.52,33.64-63c3-5.54,5.92-11.06,8.81-16.63C116,11.64,125.38,5.27,137.76,3c.6-.11,1.23-.1,1.84-.15a64.84,64.84,0,0,1,8.48,0,39.14,39.14,0,0,1,23.74,11A36,36,0,0,1,182.76,37.22Z"/></svg>