<svg xmlns="http://www.w3.org/2000/svg" viewBox="0 0 200 200"><path d="M194.08,135c-3.88-5.05-8.76-8.68-15-10.09-2.83-.65-3.44-2.06-3.42-4.65.09-12.93.05-25.85,0-38.78a112.86,112.86,0,0,0-.66-14.58C170.71,33.22,141.8,5.28,109.83,2.81c-1.88-.14-3.76-.3-5.63-.4H95.29a66.58,66.58,0,0,0-9.4.9A72.43,72.43,0,0,0,48.15,23Q25.59,45,25.07,76.38c-.22,14.73-.05,29.46,0,44.19,0,2.08-.27,3.47-2.77,4.16C11.63,127.69,4.36,134,3,145.61A73.31,73.31,0,0,0,2.9,154a18.1,18.1,0,0,0,1.21,6c1.93,4.78,5.16,6.82,11.55,7.82a26.29,26.29,0,0,0,4.16.3H60.16c6.22,0,6.31,0,7.64,6.09C71,189,84.73,199.87,96.92,199.41l6.53,0a24.9,24.9,0,0,0,14.45-4.09,32.73,32.73,0,0,0,15.45-23.39c.48-2.92,1.69-3.81,4.58-3.79,14.34.13,28.68,0,43,.06a26.43,26.43,0,0,0,4.17-.31c6.75-1.07,10-3.26,11.84-8.64a18.88,18.88,0,0,0,1.07-6.05c0-2.56-.27-5-.27-7.55C197.12,141.88,196.51,138.16,194.08,135Zm-72.8,34.48a21.08,21.08,0,0,1-41.78.22c-.3-2,0-2.82,2.32-2.76,6.25.17,12.51.06,18.77.06s12.3.09,18.45-.05C121.13,166.9,121.55,167.57,121.28,169.48Zm65.06-16.6c-.13,1.74-.84,2.52-2.51,2.54H19c-4.6,0-4.6,0-4.59-4.58,0-8.32,4.69-13.52,12.89-14.38,7-.73,10-4.09,10-11.27,0-15.7,0-31.39,0-47.08C37.42,47.06,57.73,22,88.11,15.38,121.4,8.17,156.21,31.5,162.16,65a80.63,80.63,0,0,1,1.25,14.21c0,15.49,0,31,0,46.45,0,6.56,3.1,10.07,9.5,10.8C182.35,137.51,187.05,143.31,186.34,152.88Z"/></svg>