<?xml version="1.0" encoding="utf-8"?>
<!-- Generator: Adobe Illustrator 24.1.0, SVG Export Plug-In . SVG Version: 6.00 Build 0)  -->
<svg version="1.1" id="Layer_1" xmlns="http://www.w3.org/2000/svg" xmlns:xlink="http://www.w3.org/1999/xlink" x="0px" y="0px"
	 viewBox="0 0 28 28" style="enable-background:new 0 0 28 28;" xml:space="preserve">
<path d="M27.9,13.2c-0.1-1.5-0.9-2.8-2.2-3.7l-0.3-0.2l0.2-0.2c0.2-0.1,0.2-0.3,0.2-0.5c0-0.3-0.3-0.5-0.6-0.5l0,0l-1.9,0.3h-0.1
	c-1.4-0.5-3.1-1-5.3-1c-3,0-6.5,1-10.8,3.1c-0.8,0.4-1.7,0.7-2.6,0.8c-1.8,0.2-3.1,0.9-3.8,2.1c-1.2,1.9-0.5,4.2-0.4,4.4
	s0.3,0.4,0.5,0.4h2.7v0.2c0.3,1.2,1.4,2.1,2.7,2.1s2.4-0.8,2.7-2.1v-0.2h11.5l0.1,0.2c0.3,1.2,1.4,2.1,2.7,2.1
	c1.3,0,2.4-0.8,2.7-2.1v-0.2h0.3c0.5,0,0.9-0.2,1.2-0.5c0.2-0.2,0.5-0.6,0.5-0.9C28,16.7,27.9,13.2,27.9,13.2z M23.2,16
	c0.9,0,1.7,0.7,1.7,1.7s-0.7,1.7-1.7,1.7c-0.9,0-1.7-0.7-1.7-1.7S22.3,16,23.2,16z M6.2,16.1c0.9,0,1.7,0.7,1.7,1.7
	s-0.7,1.7-1.7,1.7c-0.9,0-1.7-0.7-1.7-1.7S5.3,16.1,6.2,16.1z M26.9,16.7c0,0.1-0.1,0.3-0.2,0.4c0,0-0.1,0.2-0.3,0.2H26l-0.1-0.2
	c-0.3-1.2-1.4-2.1-2.7-2.1c-1.3,0-2.4,0.8-2.7,2.1v0.2L9,17.2V17c-0.4-1.2-1.5-2-2.8-2s-2.3,0.8-2.6,2v0.2l-2.3-0.2v-0.2
	c-0.1-0.7-0.2-1.9,0.4-3c0.6-0.9,1.6-1.4,3-1.6c1-0.1,2-0.4,3-0.9c4.1-2,7.6-3,10.5-3c2,0,3.9,0.7,5.1,1.1c0.6,0.2,1,0.4,1.6,0.7
	c1.1,0.6,1.9,1.9,2,3.2L26.9,16.7z"/>
</svg>
