<svg xmlns="http://www.w3.org/2000/svg" viewBox="0 0 195.29 195.29"><path d="M97.64,0a97.65,97.65,0,1,0,97.65,97.64A97.65,97.65,0,0,0,97.64,0Zm50.49,67.48c-.43,2.74-2.23,4.54-4.15,6.33q-32.22,29.93-64.38,59.92A9.91,9.91,0,0,1,75,136H73.51c-2.58-.48-4.38-2-6-4-6.09-7.23-12.29-14.37-18.42-21.57a7.43,7.43,0,1,1,11.31-9.62Q67.3,108.91,74.24,117c.2.24.42.46.67.72q3.66-3.39,7.26-6.74,26.51-24.66,53-49.35a10.51,10.51,0,0,1,4.36-2.36h2.31c.22.08.44.18.66.24a7.41,7.41,0,0,1,5.13,4.69c.22.58.35,1.2.52,1.8Z"/></svg>