<svg xmlns="http://www.w3.org/2000/svg" viewBox="0 0 200 200"><path d="M196.6,102.18l.05-4.66c0-1-.16-1.91-.1-2.92l-.19-2.76c0-.27,0-.55,0-.82-.26-3.63-.22-7.3-.94-10.87A96.29,96.29,0,0,0,185.56,53a98.58,98.58,0,0,0-22.32-27.5A94.08,94.08,0,0,0,128.72,6.4,60.94,60.94,0,0,0,115.1,3.47c-2.64-.19-5.3-.18-7.92-.6H92c-.37,0-.8.14-1.2.18-3.65.29-7.34.2-10.93.94A96.5,96.5,0,0,0,52.64,14,99.5,99.5,0,0,0,25.2,36.34,92.89,92.89,0,0,0,9.87,60.78C6.66,68.29,4.11,76,3.27,84.19c-.26,2.55-.17,5.14-.59,7.68v15.85c.28.31.15.68.18,1,.36,3.81.27,7.65,1.09,11.42a96.81,96.81,0,0,0,10.24,27.36,100,100,0,0,0,22.38,27,94.3,94.3,0,0,0,23.7,14.85,86.33,86.33,0,0,0,21.82,6.54c3.23.48,6.57.66,9.76.82,1,0,2.33.05,3.37,0,.56.05,1.17-.08,1.82-.05h5.15c.89,0,1.37,0,2.24,0s1.64,0,2.69-.1a9.11,9.11,0,0,0,1.27,0c3.93-.32,7.89-.3,11.77-1.13a95.68,95.68,0,0,0,27.34-10.29,99.1,99.1,0,0,0,26.85-22.28,92.52,92.52,0,0,0,14.84-23.7c3.23-7.52,5.86-15.22,6.66-23.46.26-2.66.47-5.36.7-8,.06-1.08.1-2.54.1-3.53S196.6,102.87,196.6,102.18Zm-22.42,37.68c-13,23.5-32.74,38.08-59.15,43.15a80.7,80.7,0,0,1-55.12-8.46c-23.76-13-38.53-32.83-43.51-59.47C12.09,92,17,70.62,30.23,51.2,31,50,32,48.91,32.78,47.72c.61-.9,1.09-.82,1.8-.08q4.23,4.3,8.53,8.54c2.76,2.75,6.49,2.91,9,.42s2.34-6.25-.37-9-5.66-5.72-8.56-8.52c-.9-.87-1.14-1.38,0-2.35A84.25,84.25,0,0,1,85.69,16.25c2.07-.35,4.17-.49,6.25-.78,1.16-.16,1.6.21,1.56,1.43-.07,2.64,0,5.29,0,7.93s0,5.16,0,7.74c.06,3.76,2.65,6.39,6.16,6.36a6.08,6.08,0,0,0,6.06-6.3c.06-5,0-10.09,0-15.13,0-2.17,0-2.2,2.38-2a83.66,83.66,0,0,1,35.67,12,88.52,88.52,0,0,1,12.39,9.25c.91.81.88,1.28,0,2.1-2.93,2.84-5.8,5.75-8.68,8.64s-2.92,6.47-.45,9,6.24,2.4,9-.33,5.72-5.66,8.52-8.55c.81-.83,1.23-.78,1.92.12A83.78,83.78,0,0,1,183.6,89C185.79,107,182.92,124,174.18,139.86Z"/><path class="cls-1" d="M107.29,136.71a2.46,2.46,0,0,1-1.58-2.6c.05-10.69,0-21.38,0-32.07s0-21.26,0-31.88c0-3.26-1.42-5.51-4-6.42-4.32-1.53-8.26,1.48-8.27,6.35q0,31.8,0,63.6a3,3,0,0,1-1.83,3.19,16.55,16.55,0,0,0-8.4,19,16.85,16.85,0,0,0,32.78-.46A16.71,16.71,0,0,0,107.29,136.71Zm-7.78,19.65a4.68,4.68,0,1,1,4.78-4.53A4.61,4.61,0,0,1,99.51,156.36Z"/></svg>