<svg xmlns="http://www.w3.org/2000/svg" viewBox="0 0 200 200"><path d="M189.21,25.28a5.7,5.7,0,0,1,0-.71,19,19,0,0,0-3.85-10.32A31.13,31.13,0,0,0,181,9.59c-3.66-3.47-7.84-5.91-13-6.15-.44-.06-.86-.09-1.3-.11-.74,0-1.63-.05-2.36,0l-1.86,0H43c-.61,0-1.33-.18-2-.18H38.13a15.16,15.16,0,0,0-5.52,1.1A29.27,29.27,0,0,0,18.29,16.73c-2.33,3.89-2.65,8.13-2.84,12.45v143.5c-.06.79.09,1.57.09,2.36a19.67,19.67,0,0,0,2.32,9.22,29.45,29.45,0,0,0,7.8,9.39,19.59,19.59,0,0,0,10.2,4.64c.81.08,1.58.13,2.44.19l.42,0c.77,0,1.54.06,2.32.06h1.77c23.86,0,47.72.16,71.58.17h2.45a7.5,7.5,0,0,0,.82,0,14.87,14.87,0,0,0,9-3.93c4-3.77,8.11-7.42,12.14-11.15,8.87-8.19,17.82-16.3,26.7-24.48,5.73-5.27,11.42-10.59,17.23-15.78,1.26-1.12,2.39-2.38,3.59-3.57,1.82-1.8,2.44-4.09,2.95-6.43l0-3.48a12,12,0,0,1,0-1.34q0-49.21,0-98.44a7.22,7.22,0,0,1,0-1.47ZM124.73,180.53c-.65-.63-.41-1.27-.41-1.84q0-11.25,0-22.49c0-10.49,6.94-17.32,17.45-17.32h27.71l.21.44Zm51.41-52.47c-11.79,0-23.59-.06-35.38,0a27.14,27.14,0,0,0-26.92,22.66,34,34,0,0,0-.36,5.61c0,9.8,0,19.59,0,29.39,0,1.71-.55,2.12-2.17,2.12-22.62-.05-45.24,0-67.86,0-9.9,0-16.94-7.06-17-16.92q0-35,0-70,0-34.67,0-69.32C26.54,20.81,33.37,14,44.14,14H161.35c10.4,0,17.29,6.9,17.29,17.3v94.35C178.64,128.06,178.64,128.06,176.14,128.06Z"/><path class="cls-1" d="M102.55,79.21c17.36,0,34.71,0,52.06,0,1.88,0,2.41.53,2.29,2.34-.15,2.35-.08,4.72,0,7.07,0,1.12-.39,1.56-1.47,1.47-.42,0-.85,0-1.27,0H50.91c-3,0-2.58.12-2.61-2.66,0-2,.1-4.11,0-6.16-.1-1.6.43-2.06,2-2,11.73.06,23.46,0,35.19,0Z"/><path class="cls-1" d="M91.47,52c-13.66,0-27.32,0-41,0-1.76,0-2.35-.48-2.22-2.24.15-2,0-4,0-6,0-2.67,0-2.67,2.59-2.67H84.63c16.14,0,32.28,0,48.42,0,1.68,0,2.25.45,2.14,2.13-.13,1.92,0,3.86,0,5.8,0,3.18.4,3-2.88,3Z"/><path class="cls-1" d="M80.77,128.05c-10.15,0-20.31,0-30.46,0-1.6,0-2.12-.45-2-2,.13-2.47.07-5,0-7.43,0-1,.31-1.48,1.35-1.4.36,0,.72,0,1.08,0q30.28,0,60.56,0c1.77,0,2.3.49,2.19,2.23a56.4,56.4,0,0,0,0,6.88c.08,1.5-.51,1.81-1.87,1.8C101.32,128,91.05,128.05,80.77,128.05Z"/><path class="cls-1" d="M70.07,166.08c-6.65,0-13.3,0-20,0-1.47,0-1.88-.46-1.83-1.86a69.66,69.66,0,0,0,0-7.08c-.1-1.7.59-2,2.1-2,6.23.07,12.46,0,18.69,0,6.89,0,13.79,0,20.68,0,1.61,0,2.12.47,2,2.07a68.84,68.84,0,0,0,0,6.89c.06,1.48-.38,2-1.92,2C83.26,166,76.67,166.08,70.07,166.08Z"/></svg>