<svg xmlns="http://www.w3.org/2000/svg" viewBox="0 0 200 200"><path d="M99.57,153.55h0A7.73,7.73,0,0,1,94.1,151l-9.18-9.19C71.19,128.07,57,113.88,43.1,99.87a10.32,10.32,0,0,1-2.7-5.41,6.42,6.42,0,0,1,3.82-6.76,7,7,0,0,1,7.4.67,12,12,0,0,1,1.67,1.52l.36.37L92.38,129V23.77c0-.53,0-1.06,0-1.59a7.35,7.35,0,0,1,7.2-7,7.22,7.22,0,0,1,7.15,6.87c.09,1.52.08,3,.07,4.5,0,.52,0,1,0,1.56l0,100.77,7.74-7.74q15.61-15.62,31.25-31.2a10.47,10.47,0,0,1,4.56-2.79,6.7,6.7,0,0,1,7.44,3.13,7,7,0,0,1-.46,8.24,12.14,12.14,0,0,1-1.17,1.26l-.25.25Q130.45,125.54,105,151A7.65,7.65,0,0,1,99.57,153.55Z"/><path class="cls-1" d="M65.93,186.47c-14.15,0-28.51,0-42.69-.05a27.36,27.36,0,0,1-8.51-1.25A18.72,18.72,0,0,1,2,167.3q0-12,0-24.08v-7.29a8.3,8.3,0,0,1,2.26-6.05,7,7,0,0,1,5-2c4.08,0,7,3.41,7.06,8.07,0,6.35,0,12.69,0,19v6c0,2.06,0,4.12,0,6.18A4.68,4.68,0,0,0,21,172.07c.21,0,.41,0,.62,0H177.16c4.21,0,5.85-1.64,5.85-5.84V161.8c0-8.44,0-17.16,0-25.74,0-3.75,1.51-6.29,4.55-7.55a7,7,0,0,1,9.58,4.7,12,12,0,0,1,.35,3v4.31c0,8.48,0,17.25,0,25.88,0,10-5.84,17.44-15.12,19.49a27.64,27.64,0,0,1-6,.56q-30.63,0-61.26,0h-13.2l-2.48,0H65.93Z"/></svg>