<svg xmlns="http://www.w3.org/2000/svg" viewBox="0 0 200 200"><path d="M120.52,5.43a28.19,28.19,0,0,1,5.48-.6,45.55,45.55,0,0,1,22.43,5.76A44.71,44.71,0,0,1,163,22.88c4.82,6.25,8,13.3,8.53,21.18a27.49,27.49,0,0,1-4,16.58c-3.94,6.3-7.74,12.68-11.75,18.93-3.61,5.63-7.16,11.28-10.71,16.94q-4.87,7.76-9.86,15.43c-2.93,4.53-5.89,9-8.76,13.62-2.26,3.61-4.57,7.22-6.9,10.78s-4.15,7.46-7,10.7c-1.12,1.26-1.61,3-2.57,4.41-2.13,3.18-4.1,6.48-6.11,9.74-1.19,1.93-2.48,3.81-3.74,5.68-1,1.49-3,2-4.58,2.83-3.54,1.74-7.15,3.35-10.73,5s-7,3.18-10.41,4.83c-3,1.45-5.94,3-8.93,4.48-3.84,1.86-7.72,3.64-11.56,5.49-3.4,1.64-6.73,3.41-10.17,4.95-2.38,1.07-4.59,2.56-7.28,2.95a4.21,4.21,0,0,1-5-4.11c-.29-6.59-.08-13.18-.14-19.76q-.11-10.53,0-21.07c.1-8.45.06-16.89.09-25.34,0-2.88,1.88-5.07,3.29-7.3,1.72-2.71,3.26-5.57,5.16-8.1,2.5-3.32,4-7.24,6.78-10.36A23.54,23.54,0,0,0,48.73,98c2.27-3.69,4.41-7.47,6.86-11,4.21-6.13,8-12.54,12-18.76,2.92-4.48,5.73-9.05,8.54-13.62,4.33-7,9-13.83,13.25-20.86,2.53-4.14,5.27-8.14,7.76-12.31a37.44,37.44,0,0,1,9-10.58C109.17,8.47,117,5.42,120.52,5.43Zm33.77,55.44c.13-.9-.56-1-1-1.26-2.57-1.22-4.68-3.14-7.07-4.63-4.61-2.89-9.15-5.93-13.74-8.84-3.87-2.46-7.68-5.06-11.7-7.3a35.82,35.82,0,0,1-4-2.49c-3.29-2.44-7.08-4.11-10.36-6.59-.6-.46-1.27-.59-1.67.36-.82,1.93-2.41,3.35-3.47,5.17-.94,1.62-1.61,3.46-2.86,4.88-2.77,3.14-4.48,7-6.77,10.42-2.46,3.69-4.83,7.48-7.19,11.25-2.79,4.47-5.65,8.9-8.47,13.35C72.64,80.45,69.33,85.73,66,91c-3.61,5.61-7.16,11.26-10.71,16.91-2.88,4.6-5.72,9.22-8.56,13.84-.63,1-2,1.79-1.89,3,.11,1.35,1.86,1.23,2.72,2a.79.79,0,0,0,.15.12c6.87,4.34,13.7,8.76,20.64,13,3.39,2.07,6.77,4.16,10.11,6.29,1.44.91,3,1.58,4.4,2.6,3.32,2.51,7.22,4.08,10.47,6.68.54.43,1.14.57,1.55-.26,1.24-2.49,3.06-4.62,4.47-7,3.06-5.14,6.4-10.09,9.59-15.14,3.62-5.76,7.21-11.55,10.91-17.26,3-4.61,5.66-9.42,8.72-14,4.08-6,7.61-12.45,11.86-18.39,1.82-2.54,3.37-5.3,5-8,2.72-4.45,5.71-8.73,8.31-13.25C153.93,61.71,154.12,61.24,154.29,60.87ZM42.57,136.69c-.1,1.7-.23,3.15-.23,4.57,0,4.34,0,9.27,0,13.9q0,7.71-.17,15.43c-.12,4-.25,7.7-.23,11.9a1.1,1.1,0,0,0,.27,1c.37.26.69-.14,1-.3,3.15-1.56,6.28-3.16,9.43-4.7,4.67-2.27,9.37-4.5,14.05-6.78,3.67-1.79,7.33-3.62,11-5.44,2.32-1.16,4.62-2.34,7.06-3.57-4.65-2.85-9.16-5.38-13.41-8.3-3.43-2.35-7.07-4.32-10.55-6.58s-7.21-4.8-11-6.82C47.29,139.76,45.29,137.78,42.57,136.69Zm84.92-120.3c-5.18.38-8.94,1.6-12.34,3.87-.76.51-1.17,1.06,0,1.6,3.09,1.47,5.58,3.89,8.54,5.51,4,2.22,7.74,4.93,11.58,7.41,7.34,4.75,14.88,9.18,22.15,14,.92.61,1.28.54,1.64-.64.58-2,.31-3.83.24-5.78-.22-6-3-10.75-6.78-15.06a32.92,32.92,0,0,0-5.57-4.74,31.55,31.55,0,0,0-12-5.3C132.17,16.69,129.34,15.8,127.49,16.39Z"/></svg>