<svg xmlns="http://www.w3.org/2000/svg" viewBox="0 0 200 200"><path d="M52.4,198.73a10.9,10.9,0,0,0,6.17-2.34c2.59-2,5.33-3.86,7.94-5.86C79.24,180.78,92.58,172.1,108,167a134.06,134.06,0,0,1,30.59-6.44c5.33-.47,10.69.07,16-.85q22.38-3.87,31.77-24.53c1.67-3.63,1.58-7.59,2-11.34,0-1.15,0-2.29,0-3.45,0-.74,0-1.45,0-2.17q0-37.63,0-75.25c0-.73,0-1.53,0-2.15V38.33c-.25-5.48-.84-10.95-3.82-15.89a44.92,44.92,0,0,0-6.17-8.28c-5.82-6-12.42-10.56-21-11.35-1.78-.17-3.66-.23-5.38-.33-.66,0-1.28,0-1.93,0s-1.61,0-2.42,0h-95c-.81,0-1.68,0-2.44,0l-1.46,0-1.41,0A31.75,31.75,0,0,0,29,8a42.83,42.83,0,0,0-5.35,4.32c-6.16,5.9-10.8,12.65-11.56,21.46-.11,1.38-.21,2.9-.3,4.14,0,1,0,2,0,3,0,.72,0,1.42,0,2.14q0,38.13,0,76.24c0,.67.08,1.37.05,2l0,2.89c.25,3.36.06,6.77,1.32,9.92a40.84,40.84,0,0,0,26,24.59c4,1.32,4.26,1.58,4.27,5.71,0,9.14-.05,18.29,0,27.43,0,3.59,1.21,5.54,4,6.49a10.33,10.33,0,0,0,3.41.51Zm123.09-80.36c0,14.49-9,25.14-23.24,27.48-4.3.71-8.7.28-13.06.58a138.59,138.59,0,0,0-68.37,23.69c-3.62,2.42-7.1,5.06-10.67,7.57-.58.4-1.19,1.29-1.87,1s-.41-1.46-.41-2.23c0-7.41,0-14.82,0-22.24,0-5.69-2.21-7.94-7.82-8.12-13.26-.41-25-12.18-25.1-25.44q-.16-39.66,0-79.31C25,27.23,37,15.74,51.6,15.65c16.22-.1,32.44,0,48.67,0,16.06,0,32.12,0,48.17,0a26.61,26.61,0,0,1,26.36,21,28.84,28.84,0,0,1,.7,6.61Q175.5,80.82,175.49,118.37Z"/><path class="cls-1" d="M93.58,86.9c-.73-5.29,2-9.15,7.23-11.5,1-.47,2-1.08,3-1.65,4.35-2.46,5.91-6.31,4.52-11.07-1.11-3.8-6.16-6-10.9-4.86-4.08,1-5.73,3.06-6.26,7.74a6.35,6.35,0,0,1-12.64.26A15.23,15.23,0,0,1,79,60c1.93-8.1,7.19-13,15.13-14.85,9.15-2.15,17.16,0,23.32,7.35,6.45,7.71,6.62,26-7.15,32.75-2.55,1.24-4.27,2.35-4,5.73s-3,6-6.29,6a6.51,6.51,0,0,1-6.43-6.21C93.53,89.67,93.58,88.59,93.58,86.9Z"/><path class="cls-1" d="M100,120.91c-4.69,0-7.91-3.33-7.9-8.16s3.31-8.19,7.91-8.19,7.9,3.44,7.91,8.21S104.68,120.91,100,120.91Z"/></svg>