<svg xmlns="http://www.w3.org/2000/svg" viewBox="0 0 200 200"><path d="M142.61,194.93a4.82,4.82,0,0,1-.82.07l-1.44,0H58l-2.06-.14a8.08,8.08,0,0,1-.86-.1c-1.45-.24-3-.48-4.33-.8-11.44-2.73-20.49-13.59-21.52-24.25-.19-2-.34-3.88-.34-5.83,0-22.11.07-44.22-.07-66.34,0-5.21,5.34-9.8,10.89-7.42a7.49,7.49,0,0,1,4.58,6.84q0,33.84,0,67.69c0,9.07,6.11,15.15,15.22,15.1,26.76-.13,53.52-.28,80.28,0,9.27.1,15.43-6,15.43-15.27,0-22.34.1-44.67-.08-67,0-4.07,3.4-8.22,7.62-8.06,4.57.17,7.83,3,7.84,7.85.08,23.17.26,46.35-.05,69.51-.19,13.88-10.75,25.37-24,27.65Z"/><path class="cls-1" d="M102.42,5h.63c8.2.11,14.2,4.88,20.1,9.69,6.19,5.05,12.5,10,18.69,15,10.88,8.84,21.89,17.51,32.8,26.31,5,4,10,8,15.05,12,2.14,1.66,4.15,3.49,6.18,5.29a5.76,5.76,0,0,1,2.07,4.83l-.05,1.14a8,8,0,0,1-.1,1.1.5.5,0,0,0,0,.12c-.49,4.18-5.49,7.41-9.47,6-3.15-1.08-5.42-3.48-7.93-5.47q-24.83-19.7-49.52-39.54-10.9-8.74-21.77-17.55A14.48,14.48,0,0,0,91,24q-18.5,15-37.12,29.77-18.75,15-37.52,30c-.47.37-1,.71-1.43,1.1-5.18,4.41-10.57,1-12.42-3.19l-.19-.33A3.19,3.19,0,0,1,2.06,80v-.73A9.36,9.36,0,0,1,5.51,72l0,0Q20.88,59.77,36.15,47.54C49.11,37.2,62,26.73,75,16.47c2.24-1.77,4.43-3.63,6.69-5.39C86,7.69,90.83,5.38,96.39,5H97c.54,0,1.29,0,1.77,0Z"/></svg>