<svg xmlns="http://www.w3.org/2000/svg" viewBox="0 0 200 200"><path d="M197.82,30.72v139c0,7.23-6.34,15.94-13.36,18.54a28.74,28.74,0,0,1-10.12,1.84c-23-.07-46,0-69,0-10.63,0-20.42-8.12-22.09-18.58-1.14-7.16-.19-14.42-.48-21.62a8.27,8.27,0,0,1,1.18-4.62,7.27,7.27,0,0,1,8-3.24,7,7,0,0,1,5.43,6.66c0,5.53,0,11.06,0,16.59,0,6.83,3.36,10.2,10.14,10.2q33.19,0,66.39,0c3.32,0,6.44-.72,8.32-4a7.31,7.31,0,0,0,1-3.77q0-67.49,0-135c0-4.69-3.59-7.69-9.14-7.7q-19.69,0-39.39,0Q121,25,107.24,25a12.2,12.2,0,0,0-5.53,1.24c-3.33,1.68-4.25,4.77-4.32,8.13-.12,5.82,0,11.65,0,17.48a7.16,7.16,0,0,1-6.82,7.23c-3.91.12-7.68-3.08-7.75-6.94-.13-7-.46-14,.06-21,.79-10.33,8.41-18.13,18.09-20.28a24.44,24.44,0,0,1,5.26-.44q34.52,0,69,0a22.57,22.57,0,0,1,22.31,17.5A13.89,13.89,0,0,1,197.82,30.72Z"/><path class="cls-1" d="M87.55,107.72q-27.76,0-55.52,0c-1,0-2.21-.48-2.71.84s.61,1.86,1.31,2.56c5.83,5.85,11.62,11.74,17.54,17.5,2.51,2.43,2.82,5.3,2,8.31s-3.59,4.42-6.58,4.76a6.36,6.36,0,0,1-5.18-2.05q-17.49-17.4-34.89-34.88c-2.69-2.7-2.41-6.73.58-10.15C9.66,88.22,15.36,81.88,21,75.46c5.3-6.09,10.52-12.25,15.78-18.38,1.78-2.08,3.77-3.49,6.8-3.42a6.9,6.9,0,0,1,6.31,4.09,6.81,6.81,0,0,1-.77,7.7c-4.9,5.76-9.9,11.43-14.86,17.14C32.13,85,30.06,87.35,28,89.72A2,2,0,0,0,27.59,92c.31.75,1,.71,1.71.71H143c2.23,0,4.33.28,6.12,1.92,2.44,2.22,3.37,4.83,2.33,7.93a7.86,7.86,0,0,1-7.5,5.17c-5.75.05-11.5,0-17.25,0Z"/></svg>