<svg xmlns="http://www.w3.org/2000/svg" viewBox="0 0 200 200"><path d="M188.1,156.42c0-.33,0-.67,0-1v-2.32c-.11-9.07-5.31-14.63-13-18.19a10,10,0,0,1-5.38-5.22c-7.42-16.39-10.09-33.77-10.7-51.55-.82-24-11.93-41.64-32.94-53-2.67-1.45-4.25-3-4.92-6.11-2.09-9.71-10.61-17-19.85-17.53H98.55a10.78,10.78,0,0,0-3.42.5C86.19,4.91,80.71,11,78.84,20.2a5.39,5.39,0,0,1-3.34,4.24c-16.57,7.91-27.11,21-32.22,38.47-2.46,8.41-2,17.21-2.88,25.82-1.54,14.38-4.17,28.43-10.47,41.61a7.77,7.77,0,0,1-4.23,4c-7.26,3.09-12.29,8.15-13.59,16.27a31.17,31.17,0,0,0,0,7.54,17.22,17.22,0,0,0,2.49,7c4.61,7,10.93,10.65,19.36,10.64,11.57,0,23.14.06,34.71-.05,2.69,0,4.41.57,5,3.46a19.33,19.33,0,0,0,2.46,5.54c4.49,7.79,11,12.73,20,14.21h5.8c.65,0,1.3,0,2,0,10.86-2.23,18-8.86,22-19,1.6-4.05,1.37-4.14,5.64-4.14,11.88,0,23.76.06,35.64,0C179.56,175.73,188.52,164.44,188.1,156.42ZM91.59,19.64c.88-3.4,4.26-5.77,8.3-5.85,3.85-.07,8,2.56,8.89,5.67.47,1.65.31,2.78-1.94,2.59s-4.44,0-6.66,0-4.44-.12-6.65,0C91.53,22.19,91.17,21.27,91.59,19.64Zm-48.22,111c6-15,8.93-30.53,9.93-46.55.6-9.56.92-19.17,5.77-27.93A46.83,46.83,0,0,1,82.84,34.75,11.48,11.48,0,0,1,87.35,34c7.44,0,14.9.37,22.31-.08,7-.43,12.51,2.52,17.7,6.36,12.94,9.57,18.81,22.7,19.33,38.67.56,17.57,3.37,34.77,10.17,51.14,1.54,3.7,1.37,3.89-2.72,3.89H45.76C42.41,134,42.18,133.61,43.37,130.61Zm70.41,47.88A14.66,14.66,0,0,1,97.44,187a14.31,14.31,0,0,1-11.2-8.82c-.88-2-.53-3.12,1.92-3.09,4,.05,7.92,0,11.88,0s7.73,0,11.59,0C114.32,175.11,115,176,113.78,178.49Zm62.46-23.21a8.51,8.51,0,0,1-8.09,8.2c-5.21.16-10.43.08-15.65.09H100.07c-22.22,0-44.43-.13-66.64.06-8.64.07-11.3-8.77-8.06-13.9a8.54,8.54,0,0,1,6.78-4.25c1.05-.1,2.12-.06,3.18-.06h131C172.9,145.42,176.51,149,176.24,155.28Z"/></svg>