<svg xmlns="http://www.w3.org/2000/svg" viewBox="0 0 200 200"><path d="M190.29,124.18c0-36.7,0-74,0-110.69a11.16,11.16,0,0,0-1.57-6.55A12.67,12.67,0,0,0,179.28.76h-86a12.12,12.12,0,0,0-6.2,2.36,13.6,13.6,0,0,0-5.45,11.09q0,18.2,0,36.41c0,2.41,0,2.38-2.4,3-3.38.89-6.76,1.8-10,3A171.46,171.46,0,0,0,46,67.29C34,73.82,26.22,83.67,23.7,97.16c-3.94,21-7.46,42.16-11.08,63.26-1,5.91-2.4,11.78-2.78,17.79A5.34,5.34,0,0,0,10,179.9c.69,2.78,2.52,4.28,5.11,4.18a4.87,4.87,0,0,0,4.75-4c1.49-8.38,2.94-16.75,4.41-25.13q2.49-14.29,5-28.59c1.52-8.77,3-17.54,4.53-26.3a31.86,31.86,0,0,1,9.61-18.1c3.27-3.12,7.19-5.2,11.14-7.25A123.6,123.6,0,0,1,80.39,64.27c.62-.16,1.76-1.08,1.75.79-.06,10.46,0,20.91,0,31.36,0,1-.22,1.26-1.25.88-1.41-.5-2.84-1.18-4.4-1A5.24,5.24,0,0,0,72,101.07a5,5,0,0,0,3.71,5A28.55,28.55,0,0,1,82,108.91c1.1.66,1,1.18.36,2.07a44.64,44.64,0,0,1-11,10.87,4.78,4.78,0,0,0-2.29,4.9,5,5,0,0,0,8,3.38,53.61,53.61,0,0,0,15.3-16.19c5.25-8.38,10.61-16.7,15.91-25a8.82,8.82,0,0,1,7.53-4.42,9,9,0,0,1,7.78,14c-3.18,5.17-6.21,10.44-9.64,15.44-7,10.22-10.49,21.36-9.83,33.77a23.08,23.08,0,0,1-.91,6.64,37.12,37.12,0,0,1-16,22.74,47.47,47.47,0,0,0-14,14.23,5,5,0,0,0,1.42,7,4.91,4.91,0,0,0,7-1.46,42.67,42.67,0,0,1,12.22-12.17,45.47,45.47,0,0,0,16-19c.6-1.32.83-1.77,2.15-.5,7.93,7.64,20.6,5.76,25.47-3.84,1-1.88,1.69-2.5,4-2.39a15.32,15.32,0,0,0,15.5-19.65c-.4-1.41,0-1.56,1.23-1.55,6.09.05,12.19,0,18.28,0,6.82,0,11.63-3.71,13.49-10.26a6,6,0,0,0,.29-1.26Zm-64.19,35a5.43,5.43,0,0,1-6-.37c-2.28-1.68-4-4-6-5.91a1,1,0,0,1-.27-.92,75,75,0,0,0,.52-11.6c0-.11,0-.22,0-.33.16-2.39.17-2.21,2.54-2.44,2.64-.27,4.2.62,5.44,3,1.7,3.29,3.84,6.34,5.8,9.49a7.92,7.92,0,0,1,1.32,4A6,6,0,0,1,126.1,159.16Zm17.71-10.57a5.08,5.08,0,0,1-5.89-1.71c-2-2.89-3.73-5.95-5.74-9.2h12.54c.5,0,1.1-.07,1.29.53.53,1.7,1.47,3.27,1.47,5.13A5.3,5.3,0,0,1,143.81,148.59Zm9.23-21q-16.83-.12-33.68,0c-1.65,0-1.61-.47-.94-1.63,4.2-7.25,8.82-14.23,13.25-21.34,4.71-7.55,4.34-16.23-1-22.73a19,19,0,0,0-30.59,1.54c-2.22,3.31-4.31,6.72-6.46,10.08-.32.5-.67,1-1,1.48l-.31-.11V14.81c0-3,1-3.93,3.93-3.93,19,0,38,0,57.05,0,1.59,0,1.94.45,1.94,2q-.08,56.34,0,112.67C155.19,127.15,154.8,127.65,153,127.63ZM180.27,15.55q0,53.72,0,107.43c0,3.62-1,4.6-4.58,4.6-3,0-6-.07-9,0-1.39,0-1.66-.44-1.66-1.72q.06-28.41,0-56.83,0-28.17,0-56.34c0-1.4.22-2,1.82-1.9,3.32.15,6.65,0,10,.05a3.13,3.13,0,0,1,3.42,3.32C180.29,14.65,180.27,15.1,180.27,15.55Z"/></svg>