<svg xmlns="http://www.w3.org/2000/svg" viewBox="0 0 200 200"><path d="M20.26,184.53c0-.19.09-.38.12-.57.5-3.34.83-6.62,1.52-9.92a77.55,77.55,0,0,1,7.38-20.57A79.25,79.25,0,0,1,49.49,129,77.39,77.39,0,0,1,74.3,115.18a68.48,68.48,0,0,1,18.07-3.69,80.47,80.47,0,0,1,8.24-.4,114.17,114.17,0,0,1,17.49,1.85,75,75,0,0,1,20.07,7.26A80,80,0,0,1,163,140.68a75.14,75.14,0,0,1,9,13.63,87.58,87.58,0,0,1,6.2,16.62,116.22,116.22,0,0,1,2.63,15.56,17.84,17.84,0,0,1-.43,7.83c-1.06,3.34-5.82,5.55-9.13,4.51-3.84-1.22-5.9-4.66-5.79-8.81.19-7.69-1.55-15-4.26-22.11A63.62,63.62,0,0,0,144,143.12a62.85,62.85,0,0,0-23.69-13.65c-3.24-1-6.58-1.54-9.84-2.35-3.45-.85-6.76-.49-10.21-.62-1.08,0-2.16,0-3.25,0a78.58,78.58,0,0,0-10.42,1.38,56.51,56.51,0,0,0-16.66,6,63.81,63.81,0,0,0-19.14,15.42,69.17,69.17,0,0,0-10.17,16,60.37,60.37,0,0,0-3.81,11.6,87.71,87.71,0,0,0-1.55,14.44C35,196,32.37,199,27.17,199.12a6.73,6.73,0,0,1-4.1-1.42,8.31,8.31,0,0,1-3.22-7.41Z"/><path class="cls-1" d="M101.22,1.62C72,1.28,51.73,23.19,51.72,50.19c0,26.63,19.82,48.13,48.72,48.77,28.74-.68,48.52-22,48.64-48.47C149.21,22.92,128.56,1.94,101.22,1.62Zm32.42,51.16c-.91,14.45-13.71,30.94-33.25,30.5-17.79.87-34.84-15.8-33.26-35.48A32.8,32.8,0,0,1,76.62,27C84,19.43,93.24,16.28,103.85,17.1,117.55,18.17,135,31.24,133.64,52.78Z"/></svg>