<svg xmlns="http://www.w3.org/2000/svg" viewBox="0 0 200 200"><path d="M5.71,100A94.51,94.51,0,0,1,100.17,5.36c52,0,94.16,42.55,94.12,94.85a94.56,94.56,0,0,1-94.56,94.42C48,194.59,5.71,152.09,5.71,100Zm94.33-84c-46,0-83.62,37.66-83.66,83.87s37.53,83.92,83.57,84,83.63-37.68,83.67-83.88S146.07,16.11,100,16.08Z"/><path class="cls-1" d="M94.66,108.59c0-2.85,0-5.71,0-8.57a5.37,5.37,0,0,1,5.51-5.7c8.33-.36,14.71-5.47,16.3-13.53,1.31-6.65-.64-12.45-6-16.74a15.85,15.85,0,0,0-17.69-2.13,16,16,0,0,0-9.62,14.33c-.11,1.83-.37,3.58-1.77,4.89a5.13,5.13,0,0,1-5.75,1.12,5.26,5.26,0,0,1-3.34-5.21A27.63,27.63,0,1,1,107,104.17c-1.29.35-1.71.8-1.68,2.12.09,3.63,0,7.26,0,10.89,0,3.46-2.22,5.75-5.44,5.71s-5.22-2.35-5.24-5.73C94.65,114.3,94.66,111.45,94.66,108.59Z"/><path class="cls-1" d="M100,145a7,7,0,0,1-7.08-7.1,7.12,7.12,0,1,1,14.24.06A7,7,0,0,1,100,145Z"/></svg>