<svg xmlns="http://www.w3.org/2000/svg" viewBox="0 0 200 200"><path d="M173.57,116c-.85-.74-.72-1.23-.12-2.06,4.38-6.07,4-13.62-1.23-18.88q-18.69-18.9-37.59-37.59a14.18,14.18,0,0,0-18.89-1.22c-1,.78-1.38.53-2.09-.19q-9-9-18-18a2.73,2.73,0,0,1-.89-2.83A24.06,24.06,0,0,0,95,27.39,29.16,29.16,0,0,0,72.7,2.49c-1-.21-2-.33-2.86-.5-2.24-.18-4.56-.27-6.85-.27A31.86,31.86,0,0,0,51.87,5c-2.52,1.18-2.65,1.79-.72,3.72q6,6.07,12.12,12.1c.92.9,1.07,1.57,0,2.51q-2.19,2-4.21,4.2c-.94,1-1.67,1.08-2.66,0-2.2-2.3-4.49-4.52-6.74-6.77-1.82-1.82-3.62-3.69-5.49-5.46-1.57-1.49-2.56-1.29-3.46.6a46.56,46.56,0,0,0-2.23,5.31A29,29,0,0,0,49.14,54.51a28.23,28.23,0,0,0,21.11,5.26,4.15,4.15,0,0,1,3.93,1.49c1,1,.86,1.58-.09,2.48-2.48,2.36-4.81,4.87-7.3,7.23a18.92,18.92,0,0,0-6.07,14.68c.08,4.74,0,9.49,0,14.24a5.07,5.07,0,0,1-1.61,4q-4.27,4.14-8.4,8.41a2.59,2.59,0,0,1-3,.8,8,8,0,0,0-8.48,2.08c-5.65,5.48-11.18,11.09-16.71,16.68a8.23,8.23,0,0,0-2.29,5.51c-.22,3.23,1.15,5.63,3.34,7.82q24.62,24.57,49.19,49.19c1.81,1.82,3.7,3.38,6.44,3.44h2.16a11.38,11.38,0,0,0,4.56-2.36c5.64-5.65,11.35-11.24,16.91-17,2.88-3,3.05-6.74.78-10.22-.47-.71-.58-1.13.1-1.79,3.43-3.36,6.82-6.77,10.21-10.18a4.61,4.61,0,0,1,3.56-1.38c2.71.06,5.41,0,8.11,0a16.19,16.19,0,0,0,12.25-5.1c3.83-3.9,7.75-7.71,11.57-11.63.88-.91,1.38-.92,2.24,0a13.47,13.47,0,0,0,9.65,4.52c5.06.24,8.62-2.31,12.14-5.61C179.83,131.15,180,121.54,173.57,116ZM72.66,50.79c-12.44,3.69-24.31-3.34-27.12-16a20.65,20.65,0,0,1-.16-6.48c3.79,3.78,7.35,7.25,10.79,10.84,1.2,1.24,1.94,1.27,3.16,0C64.4,34,69.56,28.82,74.74,23.73c1.13-1.11,1.3-1.8,0-3-3.7-3.49-7.24-7.14-10.94-10.82,8.7-1.58,18.23,4,21.85,12.54a20.63,20.63,0,0,1,.67,14.73,3,3,0,0,0,.86,3.49c7,6.87,13.84,13.84,20.82,20.72,1,1,.92,1.46,0,2.37q-4.43,4.23-8.66,8.66c-1,1-1.49,1.08-2.52,0C90,65.53,83.06,58.7,76.24,51.77A3.09,3.09,0,0,0,72.66,50.79ZM96.42,173.92c-5,5.06-10.11,10.1-15.14,15.18-.75.76-1.21.83-2,0q-25-25.12-50.18-50.19c-.8-.8-.73-1.27,0-2,5.08-5,10.15-10,15.14-15.17,1.21-1.23,1.71-.3,2.41.4Q66.75,142.2,86.8,162.26l9.55,9.55c.33.33.78.59.84,1.24C97,173.31,96.71,173.63,96.42,173.92ZM132,144.61a8,8,0,0,1-6,2.45c-3.65,0-7.32-.32-11,.24a11.41,11.41,0,0,0-6.45,3.28c-3.41,3.39-6.82,6.78-10.19,10.2-.67.68-1,1-1.92.12q-20.07-20.19-40.26-40.26c-.89-.89-.73-1.35.07-2.12,3-2.93,5.94-6,8.94-8.9a12.41,12.41,0,0,0,3.89-9.33c0-5.41,0-10.81,0-16.22a8,8,0,0,1,2.41-6c2.6-2.58,5.22-5.14,7.75-7.79.84-.87,1.32-.82,2.14,0,3.87,3.94,7.79,7.83,11.7,11.73,2.69,2.68,5,2.69,7.61,0,6.16-6.16,12.41-12.23,18.43-18.52a7.1,7.1,0,0,1,10.62.06c1.16,1.37,2.54,2.55,4,4-1.29,1.2-2.55,2.31-3.74,3.49-2.18,2.16-2.4,4.39-.68,6.15s4,1.58,6.28-.67c.94-.94,1.89-1.85,2.8-2.82.48-.51.81-.69,1.41-.07,2.09,2.15,4.24,4.24,6.5,6.48-1.44,1.37-2.82,2.63-4.12,4-1.8,1.86-1.86,4.14-.22,5.77s3.79,1.54,5.63-.14A44.94,44.94,0,0,0,151,86.47c.66-.73,1.06-.63,1.69,0,1.78,1.86,3.61,3.69,5.48,5.47.62.6.64,1,0,1.54-1.2,1.09-2.35,2.24-3.45,3.43a3.88,3.88,0,1,0,5.35,5.63A46.25,46.25,0,0,0,163.62,99c.6-.64.93-.58,1.57,0,2.55,2.33,4.28,4.89,3,8.54a7.07,7.07,0,0,1-1.82,2.65Q149.19,127.42,132,144.61Zm36.81-14c-1.69,1.64-3.09,3.62-5.65,4.22-2.82.67-5.36-1.27-6.72-2.85-.45-.52,0-.75.27-1,3.25-3.27,6.52-6.52,9.78-9.79.38-.38.68-.61,1.19-.14,1.56,1.47,3,3,2.76,5.32A5.08,5.08,0,0,1,168.79,130.64Z"/></svg>