<svg xmlns="http://www.w3.org/2000/svg" viewBox="0 0 200 200"><path d="M193.89,131.43c-4.94-5.88-9.77-11.84-14.7-17.73a6,6,0,0,1-1.58-4.21c.08-5.73.07-11.47,0-17.21a5.63,5.63,0,0,1,1.42-4c5-6,9.81-12.07,14.84-18,1.18-1.4,1.1-2.33.26-3.78q-8.61-14.7-17-29.52c-.9-1.58-1.84-1.82-3.52-1.51-7.43,1.35-14.88,2.57-22.32,3.81a6.62,6.62,0,0,1-4.73-.87c-4.57-2.77-9.17-5.5-13.88-8a8.34,8.34,0,0,1-4.16-4.87c-2.77-7.54-5.73-15-8.62-22.5L81.3,3.26C78.39,11,75.41,18.65,72.6,26.39A6.41,6.41,0,0,1,69.54,30c-4.91,2.76-9.8,5.56-14.64,8.45a6.25,6.25,0,0,1-4.43.9C43,38.14,35.56,37,28.14,35.58c-1.95-.37-3,0-4,1.7q-8.4,14.84-17,29.53a2.43,2.43,0,0,0,.3,3.31c5.05,6,10,12.19,15,18.24a5.6,5.6,0,0,1,1.43,3.94c-.07,5.65-.08,11.29,0,16.93a6.11,6.11,0,0,1-1.46,4.25C17.65,119.24,13,125.13,8.1,130.76c-1.56,1.79-1.87,3.19-.58,5C13,145.26,18.6,154.7,24,164.22c1,1.83,2.12,2.37,4.12,2,5.23-1,10.56-1.48,15.7-2.75,5.85-1.44,11.1-1.23,16,2.66,2.42,1.35,4.38,2.68,7.28,4.24,3.56,1.58,5.3,4.25,6.59,7.85,2.51,7,4.79,14.07,8,20.77l38,0c3.08-7.94,6.18-15.87,9.19-23.83a5.2,5.2,0,0,1,2.21-2.92q8.1-4.62,16.16-9.3a4.52,4.52,0,0,1,3.31-.53c7.44,1.33,14.9,2.5,22.33,3.83,2.17.39,3.44-.08,4.61-2.16,5.4-9.66,11-19.23,16.57-28.77A2.83,2.83,0,0,0,193.89,131.43Zm-16.55,5.06c-2.57,4.24-5,8.58-7.45,12.88-.67,1.16-1.37,2.24-2.55,1.7-6.78-1.09-13.12-2-19.42-3.19a4.74,4.74,0,0,0-3.54.66q-12.1,7.05-24.28,14a4.93,4.93,0,0,0-2.33,2.8c-2.14,5.84-4.45,11.62-6.54,17.48a2.77,2.77,0,0,1-3.16,2.18c-4.86-.11-9.74-.13-14.6,0a3,3,0,0,1-3.38-2.38c-1.93-5.39-4-10.72-6-16.13A7.75,7.75,0,0,0,80.39,162c-7.3-4.1-14.56-8.26-21.72-12.58a9.44,9.44,0,0,0-7.14-1.26c-5.34,1-10.72,1.83-16.07,2.79-1.93.35-3.18,0-4.2-2-2.15-4.14-4.56-8.15-7-12.12a3,3,0,0,1,.26-4.13c3.84-4.52,7.52-9.18,11.37-13.69a6.3,6.3,0,0,0,1.67-4.46c-.07-8.86-.11-17.72,0-26.57a8.13,8.13,0,0,0-2.14-5.78c-3.66-4.29-7.13-8.75-10.8-13-1.2-1.39-1.42-2.45-.44-4.07,2.58-4.24,5-8.56,7.44-12.89a2.5,2.5,0,0,1,3-1.5c6.11,1.13,12.24,2.11,18.37,3.18a5.77,5.77,0,0,0,4.17-.7Q69,46.26,81,39.46A6.05,6.05,0,0,0,83.85,36c2-5.67,4.27-11.27,6.3-16.94.61-1.7,1.37-2.49,3.31-2.43,4.86.14,9.74.14,14.6,0a2.8,2.8,0,0,1,3.14,2.23c2,5.67,4.22,11.29,6.3,16.94a6.12,6.12,0,0,0,2.79,3.55q11.92,6.76,23.77,13.68a5.8,5.8,0,0,0,4.15.87c6.12-1.07,12.26-2,18.37-3.17a2.59,2.59,0,0,1,3.25,1.52q3.78,6.75,7.74,13.39c.76,1.25.46,2.06-.4,3.08-3.89,4.61-7.66,9.32-11.55,13.93a7.47,7.47,0,0,0-2,5.26c.11,8.57.09,17.14,0,25.7a7.45,7.45,0,0,0,1.84,5.31c3.93,4.57,7.64,9.34,11.53,14A2.62,2.62,0,0,1,177.34,136.49Z"/><path class="cls-1" d="M135.39,101.1c0-5.94,0-11.87,0-17.81,0-1.3,0-2.37-1.43-3.17Q118,71,102.14,61.77a2.51,2.51,0,0,0-2.91,0Q83.48,71,67.66,80a2.82,2.82,0,0,0-1.6,2.78q.07,17.94,0,35.89A3.26,3.26,0,0,0,68,121.92q15.32,8.74,30.55,17.65a3.87,3.87,0,0,0,4.51,0q15.09-8.85,30.3-17.49a3.66,3.66,0,0,0,2.09-3.72C135.33,112.57,135.39,106.83,135.39,101.1Zm-16.39,13q-8.28,4.62-16.41,9.49a3.17,3.17,0,0,1-3.7,0c-5.6-3.34-11.23-6.62-16.93-9.78a3.37,3.37,0,0,1-1.9-3.48q.12-9.5,0-19a3.39,3.39,0,0,1,2-3.47c5.69-3.18,11.32-6.46,16.94-9.77a3,3,0,0,1,3.47,0c5.69,3.38,11.4,6.71,17.17,9.94a3.16,3.16,0,0,1,1.8,3.27c-.09,3.21,0,6.43,0,9.64,0,3-.14,6,.05,9A4,4,0,0,1,119,114.12Z"/></svg>