<svg xmlns="http://www.w3.org/2000/svg" viewBox="0 0 200 200"><path d="M99.88,27.61c18.76.05,35.64,6,50.92,16.58a110.9,110.9,0,0,1,37.7,43.89,103.29,103.29,0,0,1,4.65,13.13,6.65,6.65,0,0,1-.18,3.47c-2.75,10.65-8,20.09-14.47,28.86-12.32,16.72-27.69,29.68-47.08,37.55a82.19,82.19,0,0,1-36.2,6,87.19,87.19,0,0,1-42.32-14,111.54,111.54,0,0,1-41.43-46.41,99.35,99.35,0,0,1-4.64-13.14,6.79,6.79,0,0,1,.22-3.47C9.77,89.51,15,80.17,21.36,71.46,33.68,54.68,49.07,41.65,68.51,33.77A82.45,82.45,0,0,1,99.88,27.61Zm.06,12.5a72.26,72.26,0,0,0-24.16,4.55C58.9,51,45,61.43,33.66,75.33,27.41,83,22.47,91.4,19.76,101a4.76,4.76,0,0,0,0,2.82c1.71,4.38,3.2,8.9,5.44,13C33.62,132.19,45.83,144,60.78,153a79.35,79.35,0,0,0,32.45,11.33,67.06,67.06,0,0,0,31.71-4.43,98,98,0,0,0,41.2-30.16c6.37-7.76,11.39-16.3,14.15-26a4.23,4.23,0,0,0,0-2.54c-1.74-4.42-3.21-9-5.49-13.14C165.69,71.49,152.41,59.08,136,50A75.66,75.66,0,0,0,99.94,40.11Z"/><path d="M100,139.8a37.39,37.39,0,1,1,37.38-37.37A37.28,37.28,0,0,1,100,139.8Zm0-62.31a24.92,24.92,0,1,0,25,25A25.07,25.07,0,0,0,100,77.49Z"/></svg>